# xmcd CD database file
#
# Track frame offsets:
#	150
#	4895
#	8895
#	25067
#	28182
#	45347
#	47402
#	76095
#	79532
#	87187
#	89147
#	110492
#	114885
#	130137
#	134667
#	145930
#	148645
#	165927
#	169590
#	192037
#	195390
#	214672
#	220145
#	251747
#	256365
#	268300
#	270567
#	273907
#	276037
#	282107
#
# Disc length: 3774 seconds
#
# Revision: 0
# Processed by: cddbd v1.5.2PL0 Copyright (c) Steve Scherf et al.
# Submitted via: CDex 1.70beta2
#
DISCID=9e0ebc1e
DTITLE=Chesky Records - The Ultimate Demonstration Disc FR edition
DYEAR=1995
DGENRE=Jazz
TTITLE0=Chesky - Welcome To The Ultimate Demonstration Disc
TTITLE1=Chesky - High-Resolution
TTITLE2=Rebecca Pidgeon - Spanish Harlem
TTITLE3=Chesky - Depth
TTITLE4=Sara K. - If I Could Sing Your Blues
TTITLE5=Chesky - Atmosphere
TTITLE6=Leny Andrade - Maiden Voyage
TTITLE7=Chesky - Midrange Purity
TTITLE8=Livingston Taylor - Grandma's Hands
TTITLE9=Chesky - Naturalness
TTITLE10=Ana Caram - Correnteza
TTITLE11=Chesky - Transparency
TTITLE12=The Fred Hersch Trio - Played Twice
TTITLE13=Chesky - Presence
TTITLE14=McCoy Tyner and Joe Henderson - Ask Me Now
TTITLE15=Chesky - Visceral Impact
TTITLE16=Monty Alexander - Sweet Georgia Brown
TTITLE17=Chesky - Rhythm and Pace
TTITLE18=Johnny Frigo - I Love Paris
TTITLE19=	Chesky - Focus
TTITLE20=The Connecticut Early Music Festival Ensemble - Flute Concerto in D, Vivaldi
TTITLE21=Chesky - Holographic Imaging
TTITLE22=Westminster Choir - Festival Te Deum, Benjamin Britten
TTITLE23=Chesky - Transients
TTITLE24=Solisti New York - The Royal March, Stravinsky
TTITLE25=Chesky - Bass Resonance
TTITLE26=Chesky - Best Of Chesky Jazz And More Audiophile Tests, Volume 2
TTITLE27=Chesky - Dynamic Test
TTITLE28=Chesky - Best Of Chesky Jazz And More Audiophile Tests, Volume 2
TTITLE29=Chesky - Final Announcement
EXTD=YEAR: 1995
EXTT0=
EXTT1=
EXTT2=
EXTT3=
EXTT4=
EXTT5=
EXTT6=
EXTT7=
EXTT8=
EXTT9=
EXTT10=
EXTT11=
EXTT12=
EXTT13=
EXTT14=
EXTT15=
EXTT16=
EXTT17=
EXTT18=
EXTT19=
EXTT20=
EXTT21=
EXTT22=
EXTT23=
EXTT24=
EXTT25=
EXTT26=
EXTT27=
EXTT28=
EXTT29=
PLAYORDER=
